<svg width="23" height="26" viewBox="0 0 23 26" fill="none" xmlns="http://www.w3.org/2000/svg">
<path d="M20.1078 14.9825V10.5C20.1078 6.47875 17.3765 3.09125 13.6765 2.0725C13.3103 1.15 12.4153 0.5 11.3578 0.5C10.3003 0.5 9.40529 1.15 9.03904 2.0725C5.33904 3.0925 2.60779 6.47875 2.60779 10.5V14.9825L0.474039 17.1163C0.357736 17.2321 0.265501 17.3699 0.202645 17.5215C0.139788 17.6732 0.107551 17.8358 0.107789 18V20.5C0.107789 20.8315 0.239485 21.1495 0.473906 21.3839C0.708326 21.6183 1.02627 21.75 1.35779 21.75H21.3578C21.6893 21.75 22.0073 21.6183 22.2417 21.3839C22.4761 21.1495 22.6078 20.8315 22.6078 20.5V18C22.608 17.8358 22.5758 17.6732 22.5129 17.5215C22.4501 17.3699 22.3578 17.2321 22.2415 17.1163L20.1078 14.9825ZM20.1078 19.25H2.60779V18.5175L4.74154 16.3837C4.85784 16.2679 4.95008 16.1301 5.01293 15.9785C5.07579 15.8268 5.10803 15.6642 5.10779 15.5V10.5C5.10779 7.05375 7.91154 4.25 11.3578 4.25C14.804 4.25 17.6078 7.05375 17.6078 10.5V15.5C17.6078 15.8325 17.739 16.15 17.974 16.3837L20.1078 18.5175V19.25ZM11.3578 25.5C12.1319 25.501 12.8871 25.2607 13.5184 24.8127C14.1497 24.3647 14.6257 23.7311 14.8803 23H7.83529C8.08987 23.7311 8.56589 24.3647 9.19718 24.8127C9.82847 25.2607 10.5837 25.501 11.3578 25.5Z" fill="white"/>
</svg>
