<svg width="190" height="58" viewBox="0 0 190 58" fill="none" xmlns="http://www.w3.org/2000/svg">
<g clip-path="url(#clip0_150_10927)">
<path fill-rule="evenodd" clip-rule="evenodd" d="M30.9196 24.4535C30.8987 23.9627 30.7736 23.4824 30.5529 23.0452C30.3322 22.6081 30.0211 22.2245 29.6409 21.9206C28.9033 21.3662 27.7969 21.0887 26.3217 21.088C23.6014 21.088 22.2414 21.9876 22.2417 23.7867C22.2423 24.1059 22.3199 24.4201 22.4676 24.7018C22.6154 24.9836 22.8288 25.2243 23.0894 25.403C23.9136 25.9446 24.8363 26.313 25.8032 26.4863C27.2781 26.819 28.5573 27.1298 29.6409 27.4187C30.6535 27.6837 31.6474 28.0176 32.6158 28.4181C33.1182 28.616 33.5985 28.8671 34.049 29.1673C34.495 29.4633 34.8822 29.8419 35.1903 30.2832C35.522 30.7717 35.773 31.3118 35.9336 31.8823C36.1326 32.62 36.2258 33.3829 36.2103 34.1476C36.2288 35.1369 35.9905 36.1138 35.5195 36.98C35.0548 37.8047 34.4172 38.5156 33.6519 39.0623C32.811 39.6555 31.8748 40.0954 30.8852 40.3622C29.7929 40.666 28.6649 40.8171 27.5324 40.8114C24.1901 40.8114 21.6778 40.1895 19.9954 38.9458C18.3131 37.7021 17.4255 35.8587 17.3326 33.4157H21.965C21.9634 33.9489 22.094 34.474 22.3448 34.9426C22.5956 35.4112 22.9585 35.8082 23.4001 36.0971C24.442 36.7846 25.6678 37.1281 26.9096 37.0807C28.4311 37.0807 29.5836 36.8139 30.3671 36.2802C30.7325 36.055 31.0333 35.7366 31.2395 35.3566C31.4457 34.9766 31.5502 34.5483 31.5425 34.1145C31.5458 33.7821 31.4992 33.451 31.4041 33.1329C31.3013 32.8165 31.1163 32.5342 30.8686 32.3156C30.5452 32.0372 30.1768 31.8177 29.7797 31.6666C29.1958 31.4426 28.594 31.2697 27.981 31.1498C26.2294 30.7954 24.7141 30.4347 23.435 30.0675C22.3198 29.7729 21.2536 29.3124 20.2712 28.7009C19.4973 28.2178 18.8647 27.5335 18.439 26.7188C18.0156 25.7913 17.8145 24.7752 17.852 23.7536C17.8464 22.871 18.0234 21.997 18.3715 21.1882C18.7278 20.3743 19.2728 19.6599 19.96 19.106C20.7487 18.4776 21.6453 18.003 22.6044 17.7063C23.8096 17.3393 25.0637 17.165 26.3217 17.1896C27.5848 17.1728 28.8433 17.347 30.0559 17.7063C31.0877 18.0121 32.0549 18.5091 32.9086 19.1721C33.689 19.787 34.3216 20.5737 34.7587 21.4729C35.2038 22.4043 35.4509 23.4203 35.484 24.4549L30.9196 24.4535Z" fill="white"/>
<path fill-rule="evenodd" clip-rule="evenodd" d="M49.6953 36.8458C50.5226 36.8509 51.3435 36.6984 52.1154 36.3962C52.8714 36.0995 53.5511 35.6326 54.1034 35.0306C54.7063 34.353 55.16 33.5528 55.4341 32.6832C55.7783 31.5852 55.9422 30.4372 55.9191 29.2852C55.9191 26.6648 55.3888 24.6768 54.3282 23.3213C53.2676 21.9657 51.7235 21.2882 49.6958 21.2889C47.6669 21.2889 46.1109 21.9663 45.028 23.3213C43.945 24.6762 43.4031 26.6637 43.4021 29.2838C43.4021 31.9042 43.9496 33.8197 45.0445 35.0306C46.1394 36.2414 47.6897 36.8465 49.6953 36.8458ZM49.6953 40.8109C46.1455 40.8109 43.4198 39.8113 41.518 37.8122C39.6162 35.813 38.6654 32.937 38.6654 29.1841C38.6417 27.4778 38.8868 25.7787 39.3916 24.151C39.8271 22.7476 40.5585 21.4574 41.535 20.37C42.4965 19.3264 43.6789 18.5181 44.993 18.0059C46.496 17.4365 48.0914 17.16 49.6953 17.191C51.2932 17.1633 52.8821 17.4397 54.3797 18.0059C55.696 18.5122 56.875 19.3286 57.8198 20.3877C58.7771 21.4963 59.4956 22.7958 59.9292 24.2028C60.4343 25.8468 60.6793 27.5618 60.6549 29.2838C60.6549 33.1038 59.7157 35.9798 57.8372 37.9119C55.9588 39.8439 53.2448 40.8103 49.6953 40.8109Z" fill="white"/>
<path fill-rule="evenodd" clip-rule="evenodd" d="M88.9717 40.0454V21.7874H82.0562V17.9229H100.727L97.3479 21.7874H93.7779V40.0454H88.9717Z" fill="white"/>
<path fill-rule="evenodd" clip-rule="evenodd" d="M100.82 40.0454V21.7883L104.201 17.9229H105.626V40.0454H100.82Z" fill="white"/>
<path fill-rule="evenodd" clip-rule="evenodd" d="M123.205 40.0454L113.386 25.1859V40.0454H108.926V17.9229H114.008L123.136 32.1492V17.9229H127.63V40.0454H123.205Z" fill="white"/>
<path fill-rule="evenodd" clip-rule="evenodd" d="M143.916 24.4535C143.895 23.9627 143.769 23.4824 143.549 23.0453C143.328 22.6083 143.017 22.2246 142.636 21.9206C141.899 21.3662 140.793 21.0887 139.318 21.088C136.598 21.088 135.238 21.9876 135.238 23.7867C135.238 24.1059 135.316 24.42 135.464 24.7018C135.611 24.9835 135.825 25.2243 136.085 25.403C136.909 25.9447 137.832 26.3131 138.799 26.4864C140.273 26.819 141.552 27.1298 142.636 27.4187C143.649 27.6839 144.643 28.0178 145.611 28.4181C146.114 28.6161 146.595 28.8674 147.046 29.1678C147.492 29.4638 147.879 29.8424 148.187 30.2837C148.518 30.7725 148.769 31.3125 148.931 31.8827C149.129 32.6206 149.222 33.3835 149.206 34.1481C149.225 35.1374 148.987 36.1143 148.516 36.9805C148.051 37.8053 147.414 38.5162 146.648 39.0628C145.808 39.6561 144.872 40.0958 143.882 40.3623C142.79 40.666 141.662 40.8171 140.529 40.8114C137.187 40.8114 134.675 40.1895 132.992 38.9458C131.31 37.7021 130.421 35.8587 130.327 33.4157H134.961C134.959 33.9487 135.09 34.4737 135.34 34.9422C135.591 35.4107 135.953 35.8079 136.394 36.0971C137.437 36.7844 138.663 37.1279 139.905 37.0807C141.427 37.0807 142.579 36.8139 143.362 36.2802C143.727 36.0552 144.028 35.7368 144.235 35.3567C144.441 34.9767 144.545 34.5484 144.538 34.1145C144.541 33.7821 144.494 33.4511 144.399 33.1329C144.296 32.8165 144.111 32.5342 143.864 32.3156C143.54 32.0372 143.172 31.8176 142.774 31.6666C142.191 31.4428 141.59 31.2699 140.977 31.1498C139.224 30.7954 137.708 30.4347 136.43 30.0675C135.314 29.7731 134.248 29.3125 133.266 28.7009C132.492 28.2179 131.859 27.5336 131.432 26.7188C131.009 25.7913 130.808 24.7755 130.845 23.7541C130.839 22.8715 131.016 21.9975 131.364 21.1887C131.721 20.3747 132.267 19.6603 132.955 19.1065C133.744 18.4783 134.64 18.0038 135.599 17.7068C136.805 17.3396 138.059 17.1651 139.317 17.1896C140.58 17.1729 141.839 17.3471 143.051 17.7063C144.083 18.0125 145.05 18.5094 145.904 19.1721C146.684 19.7872 147.316 20.5739 147.753 21.4729C148.198 22.4044 148.445 23.4203 148.479 24.4549L143.916 24.4535Z" fill="white"/>
<path fill-rule="evenodd" clip-rule="evenodd" d="M161.099 22.8875H161.066L158.127 31.6824H163.97L161.099 22.8875ZM166.805 40.0478L165.353 35.483H156.882L155.258 40.0478H150.174L158.368 17.9229H163.934L172.026 40.0454L166.805 40.0478Z" fill="white"/>
<path fill-rule="evenodd" clip-rule="evenodd" d="M68.2448 30.716V40.0454H63.4391V26.8181H78.3408V30.716H68.2448Z" fill="white"/>
<path fill-rule="evenodd" clip-rule="evenodd" d="M63.4391 21.7874H79.7938V17.9229H63.4391V21.7874Z" fill="white"/>
</g>
<defs>
<clipPath id="clip0_150_10927">
<rect width="189.358" height="58" fill="white"/>
</clipPath>
</defs>
</svg>
